<svg id="svg" version="1.1" xmlns="http://www.w3.org/2000/svg" xmlns:xlink="http://www.w3.org/1999/xlink" width="400" height="400" viewBox="0, 0, 400,400"><g id="svgg"><path id="path0" d="M109.719 145.829 C 109.324 146.129,108.679 146.380,108.287 146.387 C 107.896 146.394,107.472 146.669,107.346 146.998 C 107.219 147.326,106.984 147.514,106.822 147.414 C 105.612 146.666,101.237 154.225,101.819 156.059 C 101.952 156.480,102.110 157.494,102.170 158.312 C 102.293 159.991,104.024 163.649,105.332 164.992 C 105.810 165.482,106.579 166.314,107.043 166.841 C 108.166 168.120,109.594 169.146,112.329 170.640 C 120.413 175.056,122.576 176.560,126.577 180.543 C 128.349 182.308,129.980 183.703,130.200 183.643 C 130.420 183.583,130.479 183.654,130.331 183.802 C 130.183 183.950,130.883 185.340,131.886 186.891 C 133.809 189.863,134.901 193.286,135.410 197.936 C 135.562 199.332,135.825 200.322,135.994 200.136 C 136.359 199.737,137.899 195.612,138.170 194.311 C 138.563 192.418,138.742 191.767,139.176 190.645 C 139.421 190.009,139.534 189.400,139.425 189.292 C 139.317 189.184,139.420 188.736,139.655 188.297 C 139.978 187.694,139.950 187.414,139.541 187.155 C 139.244 186.967,139.186 186.809,139.414 186.806 C 139.642 186.803,139.835 186.485,139.843 186.100 C 139.850 185.715,139.979 184.338,140.128 183.041 C 140.305 181.501,140.244 180.494,139.951 180.141 C 139.649 179.777,139.633 179.436,139.901 179.100 C 140.268 178.641,140.181 177.368,139.426 172.112 C 139.324 171.404,139.049 170.466,138.815 170.028 C 138.581 169.591,138.424 169.090,138.467 168.916 C 138.564 168.520,137.349 164.560,136.926 163.894 C 136.614 163.402,136.545 163.184,136.450 162.376 C 136.422 162.143,136.192 162.081,135.938 162.238 C 135.673 162.402,135.584 162.349,135.729 162.115 C 136.057 161.584,134.651 158.682,134.257 159.076 C 134.093 159.241,134.076 159.066,134.222 158.688 C 134.373 158.293,134.297 158.000,134.043 158.000 C 133.799 158.000,133.600 157.785,133.600 157.522 C 133.600 157.114,131.820 154.208,131.198 153.600 C 131.085 153.490,130.550 152.739,130.009 151.930 C 129.468 151.122,128.885 150.547,128.713 150.654 C 128.541 150.760,128.400 150.638,128.400 150.381 C 128.400 149.842,126.401 147.369,126.042 147.464 C 125.909 147.499,125.193 147.274,124.451 146.964 C 123.709 146.654,122.863 146.400,122.571 146.400 C 122.278 146.400,120.995 146.128,119.720 145.795 C 116.821 145.040,110.733 145.061,109.719 145.829 M84.050 148.098 C 83.379 149.034,82.669 149.989,82.474 150.219 C 82.279 150.450,81.438 151.620,80.607 152.819 C 79.775 154.019,78.869 155.270,78.594 155.600 C 78.319 155.930,77.959 156.650,77.793 157.200 C 77.628 157.750,77.359 158.290,77.197 158.400 C 76.867 158.624,73.995 164.662,73.774 165.598 C 73.696 165.929,73.337 167.010,72.976 168.000 C 72.616 168.990,72.294 170.474,72.260 171.298 C 72.227 172.121,72.046 172.796,71.857 172.798 C 71.669 172.799,71.618 173.070,71.745 173.400 C 71.871 173.730,71.839 174.000,71.673 174.000 C 71.318 174.000,71.306 174.107,71.031 179.770 C 70.879 182.903,70.958 184.313,71.309 184.747 C 71.669 185.191,71.673 185.277,71.324 185.068 C 70.700 184.693,71.131 187.670,71.762 188.094 C 72.074 188.303,72.068 188.390,71.743 188.394 C 71.283 188.400,71.825 191.538,72.366 192.000 C 72.495 192.110,72.644 192.770,72.697 193.466 C 72.750 194.162,73.005 195.242,73.263 195.866 C 73.522 196.490,73.748 197.120,73.766 197.267 C 73.785 197.413,73.935 197.668,74.100 197.833 C 74.265 197.998,74.400 198.463,74.400 198.867 C 74.400 199.270,74.560 199.600,74.757 199.600 C 74.953 199.600,75.230 200.065,75.373 200.633 C 75.515 201.202,76.075 202.368,76.616 203.225 C 77.157 204.083,77.600 204.923,77.600 205.092 C 77.601 205.261,78.051 205.923,78.600 206.562 C 79.150 207.201,79.600 207.876,79.600 208.060 C 79.600 208.540,86.383 215.200,86.871 215.200 C 87.094 215.200,87.798 215.571,88.436 216.025 C 89.073 216.479,89.776 216.739,89.997 216.602 C 90.219 216.465,90.400 216.535,90.400 216.758 C 90.400 216.980,90.985 217.436,91.700 217.771 C 93.526 218.626,96.400 219.603,96.400 219.368 C 96.400 219.260,96.745 219.357,97.168 219.583 C 97.726 219.882,97.990 219.858,98.136 219.497 C 98.290 219.116,98.344 219.114,98.368 219.487 C 98.386 219.756,98.670 219.871,99.000 219.745 C 99.330 219.618,99.600 219.677,99.600 219.875 C 99.600 220.746,112.337 220.882,113.372 220.023 C 113.718 219.736,114.000 219.607,114.000 219.735 C 114.000 219.863,114.515 219.480,115.144 218.884 C 115.772 218.288,116.203 217.651,116.101 217.469 C 115.999 217.288,116.294 216.786,116.757 216.354 C 117.221 215.922,117.614 215.351,117.631 215.084 C 117.647 214.818,117.752 214.240,117.863 213.800 C 118.978 209.388,117.973 201.844,115.996 199.777 C 113.910 197.595,104.662 191.600,103.383 191.600 C 103.099 191.600,102.807 191.464,102.733 191.298 C 102.660 191.132,101.349 190.367,99.820 189.598 C 95.977 187.666,91.524 183.101,89.779 179.305 C 89.351 178.372,88.854 177.607,88.676 177.605 C 88.498 177.602,88.464 177.420,88.600 177.200 C 88.736 176.980,88.657 176.800,88.424 176.800 C 88.191 176.800,88.021 176.665,88.047 176.500 C 88.182 175.645,87.957 174.779,87.650 174.969 C 87.458 175.088,87.298 174.784,87.295 174.293 C 87.293 173.802,87.010 172.410,86.666 171.200 C 86.323 169.990,85.936 168.370,85.807 167.600 C 85.678 166.830,85.496 165.750,85.403 165.200 C 85.309 164.650,85.207 163.120,85.176 161.800 C 85.145 160.480,84.912 159.140,84.659 158.823 C 84.407 158.506,84.385 158.357,84.610 158.491 C 84.879 158.652,85.015 157.536,85.003 155.268 C 84.993 153.361,85.116 151.401,85.277 150.914 C 85.441 150.417,85.392 149.919,85.165 149.779 C 84.901 149.615,84.923 149.334,85.230 148.964 C 85.487 148.654,85.580 148.400,85.435 148.400 C 85.290 148.400,85.359 148.051,85.587 147.624 C 86.420 146.068,85.248 146.429,84.050 148.098 M178.052 154.711 C 177.582 155.239,177.311 155.855,177.450 156.080 C 177.589 156.305,177.494 156.618,177.239 156.776 C 176.910 156.979,177.001 157.347,177.552 158.049 C 179.492 160.514,183.987 158.789,183.425 155.794 C 183.017 153.620,179.632 152.938,178.052 154.711 M189.464 153.917 L 186.328 154.035 186.477 163.717 C 186.645 174.663,186.933 175.828,189.928 177.679 C 193.550 179.917,204.530 179.412,205.469 176.963 C 205.587 176.656,205.807 176.481,205.958 176.574 C 206.457 176.883,208.496 173.211,208.281 172.389 C 208.168 171.955,208.235 171.600,208.430 171.600 C 209.382 171.600,208.518 166.464,207.242 164.538 C 206.536 163.472,205.876 162.648,205.775 162.706 C 205.674 162.765,205.166 162.534,204.645 162.193 C 202.760 160.957,195.100 160.068,195.777 161.163 C 195.900 161.362,195.641 161.431,195.201 161.316 C 194.455 161.121,194.400 161.303,194.400 163.938 L 194.400 166.770 196.316 166.660 C 197.369 166.600,198.449 166.417,198.716 166.252 C 198.982 166.087,199.200 166.143,199.200 166.376 C 199.200 166.609,199.560 166.800,200.000 166.800 C 201.814 166.800,203.005 169.557,202.152 171.781 C 201.734 172.871,199.187 173.852,197.500 173.574 C 196.675 173.437,196.000 173.464,196.000 173.632 C 196.000 174.040,193.701 172.880,193.308 172.275 C 193.139 172.014,192.910 167.750,192.800 162.800 L 192.600 153.800 189.464 153.917 M152.000 161.223 C 152.000 161.829,156.376 170.338,156.832 170.620 C 157.042 170.749,157.126 170.997,157.019 171.169 C 156.912 171.342,157.359 172.326,158.013 173.355 C 158.666 174.385,159.200 175.402,159.200 175.614 C 159.200 175.826,159.391 176.000,159.624 176.000 C 159.857 176.000,159.935 176.181,159.798 176.403 C 158.719 178.150,163.287 180.038,165.600 178.800 C 166.367 178.390,169.824 171.793,169.738 170.904 C 169.712 170.632,169.873 170.522,170.097 170.660 C 170.321 170.798,170.422 170.665,170.321 170.364 C 170.221 170.063,170.468 169.464,170.870 169.033 C 171.271 168.602,171.600 167.938,171.600 167.558 C 171.600 167.178,171.768 166.807,171.973 166.733 C 172.588 166.514,174.813 161.453,174.453 161.093 C 173.617 160.257,168.767 160.960,168.206 162.000 C 166.528 165.111,165.602 167.280,165.811 167.617 C 165.941 167.828,165.846 168.000,165.600 168.000 C 165.354 168.000,165.264 168.180,165.400 168.400 C 165.536 168.620,165.446 168.800,165.200 168.800 C 164.954 168.800,164.864 168.980,165.000 169.200 C 165.136 169.420,165.062 169.600,164.836 169.600 C 164.610 169.600,164.163 170.095,163.842 170.700 L 163.259 171.800 162.703 170.493 C 162.397 169.775,162.061 169.272,161.957 169.376 C 161.853 169.480,161.743 169.258,161.712 168.883 C 161.662 168.264,160.545 165.769,158.900 162.600 C 158.557 161.940,158.079 161.268,157.838 161.106 C 157.141 160.638,152.000 160.741,152.000 161.223 M177.114 170.002 L 177.229 179.233 180.314 179.117 L 183.400 179.000 183.394 170.000 L 183.388 161.000 180.194 160.885 L 177.000 160.770 177.114 170.002 M212.000 163.517 L 212.000 166.235 217.683 166.192 C 224.976 166.137,225.060 166.192,225.167 171.025 L 225.241 174.400 221.521 174.394 C 217.293 174.387,216.581 174.125,216.937 172.707 C 217.174 171.764,217.301 171.730,220.392 171.784 L 223.600 171.840 223.600 170.120 L 223.600 168.400 219.024 168.400 C 216.355 168.400,214.342 168.569,214.196 168.807 C 214.058 169.030,213.803 169.126,213.631 169.019 C 212.323 168.211,210.394 173.260,211.238 175.279 C 211.542 176.006,211.751 176.725,211.702 176.878 C 211.654 177.031,212.196 177.571,212.907 178.078 C 214.738 179.383,230.974 179.785,231.338 178.534 C 231.599 177.637,231.373 168.567,231.057 167.256 C 230.628 165.481,229.129 162.800,228.564 162.800 C 228.254 162.800,228.000 162.647,228.000 162.461 C 228.000 161.500,223.767 160.800,217.954 160.800 L 212.000 160.800 212.000 163.517 M240.137 161.183 C 235.850 162.204,234.594 165.014,234.437 173.930 L 234.344 179.200 237.572 179.200 L 240.800 179.200 240.806 173.700 C 240.814 166.696,241.028 166.401,246.126 166.399 L 248.600 166.398 248.647 163.599 L 248.694 160.800 245.047 160.841 C 243.041 160.863,240.832 161.017,240.137 161.183 M250.823 166.700 C 250.951 177.063,252.630 179.103,261.061 179.147 C 270.543 179.198,272.329 177.346,272.552 167.231 C 272.702 160.402,272.901 160.800,269.333 160.800 L 266.360 160.800 266.423 165.736 C 266.512 172.594,266.004 173.545,262.300 173.449 C 261.255 173.422,260.397 173.580,260.394 173.800 C 260.390 174.020,260.236 173.961,260.051 173.669 C 259.866 173.377,259.464 173.181,259.157 173.232 C 257.450 173.520,257.281 172.984,257.222 167.106 C 257.153 160.314,257.421 160.800,253.751 160.800 L 250.749 160.800 250.823 166.700 M276.481 163.445 L 276.600 166.160 282.362 166.213 C 289.492 166.278,289.600 166.353,289.600 171.244 L 289.600 174.400 285.880 174.400 C 282.196 174.400,281.200 174.085,281.200 172.920 C 281.200 172.634,281.470 172.400,281.800 172.400 C 282.130 172.400,282.400 172.229,282.400 172.020 C 282.400 171.805,283.578 171.699,285.128 171.775 L 287.855 171.910 287.946 170.155 L 288.037 168.400 283.232 168.400 L 278.427 168.400 277.033 169.794 C 275.478 171.349,274.799 173.634,275.604 174.604 C 275.907 174.970,275.937 175.200,275.680 175.200 C 274.754 175.200,276.557 177.664,278.034 178.417 C 279.471 179.151,280.269 179.208,287.700 179.108 L 295.800 179.000 295.783 174.200 C 295.741 162.384,294.521 161.104,283.081 160.868 L 276.362 160.730 276.481 163.445 M159.022 191.564 C 158.898 191.765,158.483 191.879,158.098 191.817 C 155.719 191.437,152.457 195.148,152.206 198.521 C 151.793 204.058,155.179 206.645,162.800 206.617 L 167.400 206.600 167.522 204.462 L 167.644 202.323 163.193 202.455 L 158.741 202.587 157.456 201.365 C 156.210 200.179,155.797 198.666,156.483 197.800 C 156.658 197.580,157.116 196.985,157.502 196.477 C 158.163 195.609,158.479 195.553,162.921 195.530 L 167.639 195.505 167.519 193.484 C 167.443 192.198,167.198 191.396,166.844 191.280 C 166.539 191.179,166.396 191.270,166.527 191.481 C 166.658 191.693,166.511 191.867,166.200 191.867 C 165.889 191.867,165.728 191.717,165.841 191.533 C 165.955 191.350,165.872 191.200,165.657 191.200 C 165.442 191.200,165.176 191.425,165.065 191.700 C 164.904 192.100,164.857 192.100,164.832 191.700 C 164.814 191.425,164.609 191.200,164.376 191.200 C 164.143 191.200,164.080 191.425,164.235 191.700 C 164.461 192.100,164.410 192.100,163.979 191.700 C 163.682 191.425,163.161 191.203,162.820 191.206 C 162.274 191.212,162.271 191.258,162.800 191.600 C 163.313 191.931,163.298 191.989,162.700 191.994 C 162.315 191.997,162.000 191.820,162.000 191.600 C 162.000 191.380,161.595 191.203,161.100 191.206 C 160.372 191.211,160.315 191.286,160.800 191.600 C 161.313 191.931,161.298 191.989,160.700 191.994 C 160.315 191.997,160.000 191.820,160.000 191.600 C 160.000 191.100,159.324 191.075,159.022 191.564 M170.400 191.624 C 170.400 191.857,170.220 191.936,170.000 191.800 C 169.739 191.639,169.600 194.162,169.601 199.076 L 169.601 206.600 171.634 206.600 L 173.667 206.600 173.617 199.203 C 173.589 195.092,173.397 191.637,173.183 191.423 C 172.939 191.179,172.800 191.214,172.800 191.520 C 172.800 191.784,172.485 191.997,172.100 191.994 C 171.502 191.989,171.487 191.931,172.000 191.600 C 172.468 191.298,172.357 191.211,171.500 191.206 C 170.895 191.203,170.400 191.391,170.400 191.624 M180.596 191.607 C 180.457 191.831,180.390 193.136,180.446 194.507 L 180.547 197.000 177.654 196.957 L 174.761 196.913 174.880 198.757 L 175.000 200.600 177.800 200.800 L 180.600 201.000 180.600 203.800 L 180.600 206.600 182.700 206.600 L 184.800 206.600 184.800 198.900 L 184.800 191.200 182.824 191.200 C 181.737 191.200,180.734 191.383,180.596 191.607 M194.146 192.218 C 193.586 192.778,193.227 193.493,193.347 193.807 C 193.468 194.122,193.320 194.519,193.019 194.689 C 192.544 194.959,190.488 198.524,188.111 203.200 C 187.720 203.970,187.289 204.690,187.154 204.800 C 185.843 205.866,186.474 206.632,188.652 206.616 L 190.904 206.600 192.297 204.000 C 193.064 202.570,194.224 200.365,194.877 199.100 C 195.529 197.835,196.136 196.800,196.225 196.800 C 196.315 196.800,196.911 197.835,197.550 199.100 L 198.711 201.400 197.008 201.264 C 195.500 201.143,195.208 201.265,194.453 202.326 C 193.082 204.251,193.274 204.400,197.123 204.400 C 200.604 204.400,200.650 204.413,201.032 205.498 C 201.392 206.522,201.572 206.596,203.708 206.598 C 206.312 206.600,206.320 206.588,205.101 204.523 C 203.894 202.478,203.282 201.361,201.429 197.810 C 200.565 196.154,199.710 194.800,199.529 194.800 C 199.348 194.800,199.229 194.665,199.265 194.500 C 199.806 191.985,196.052 190.312,194.146 192.218 M207.467 191.467 C 207.097 191.836,207.129 206.392,207.500 206.436 C 212.143 206.992,212.060 207.104,211.974 200.454 L 211.910 195.474 215.055 195.437 C 217.401 195.409,218.324 195.552,218.687 196.000 C 219.216 196.651,219.390 199.230,218.900 199.153 C 218.735 199.127,217.250 199.126,215.600 199.152 L 212.600 199.200 212.742 201.254 L 212.885 203.309 215.942 203.084 C 219.906 202.794,221.190 202.296,222.349 200.598 C 223.358 199.120,224.090 195.250,223.263 195.761 C 222.974 195.940,222.893 195.823,223.039 195.441 C 223.166 195.111,222.894 194.438,222.435 193.945 C 221.976 193.452,221.600 192.892,221.600 192.701 C 221.600 192.509,221.420 192.464,221.200 192.600 C 220.980 192.736,220.800 192.627,220.800 192.357 C 220.800 192.087,220.682 191.985,220.537 192.130 C 220.392 192.275,220.034 192.194,219.741 191.951 C 219.072 191.396,213.786 190.931,214.111 191.456 C 214.238 191.662,213.860 191.857,213.271 191.889 C 212.336 191.940,212.302 191.904,213.000 191.602 C 213.676 191.310,213.601 191.252,212.524 191.228 C 211.822 191.213,211.136 191.380,211.000 191.600 C 210.864 191.820,210.538 191.997,210.276 191.994 C 209.990 191.990,210.039 191.833,210.400 191.600 C 210.842 191.315,210.569 191.211,209.367 191.206 C 208.468 191.203,207.613 191.320,207.467 191.467 M230.972 191.576 C 225.284 192.937,222.937 200.025,226.852 204.022 C 228.934 206.149,230.622 206.651,235.600 206.625 L 240.200 206.600 240.322 204.481 L 240.443 202.361 235.980 202.428 C 232.103 202.485,231.378 202.391,230.458 201.707 C 228.935 200.574,228.771 197.993,230.135 196.629 C 230.674 196.090,231.053 195.586,230.976 195.510 C 230.900 195.433,232.545 195.440,234.633 195.525 C 240.129 195.749,240.471 195.614,240.321 193.287 C 240.214 191.611,240.088 191.387,239.200 191.283 C 238.410 191.190,238.326 191.251,238.800 191.576 C 239.166 191.828,239.214 191.990,238.924 191.994 C 238.662 191.997,238.336 191.820,238.200 191.600 C 238.064 191.380,237.773 191.200,237.553 191.200 C 237.333 191.200,237.264 191.380,237.400 191.600 C 237.544 191.833,237.137 192.000,236.424 192.000 C 235.751 192.000,235.200 191.820,235.200 191.600 C 235.200 191.380,235.009 191.200,234.776 191.200 C 234.543 191.200,234.445 191.350,234.559 191.533 C 234.672 191.717,234.511 191.867,234.200 191.867 C 233.889 191.867,233.728 191.717,233.841 191.533 C 234.084 191.141,232.705 191.161,230.972 191.576 M242.400 198.900 L 242.400 206.600 244.300 206.600 C 246.616 206.600,246.400 207.399,246.400 198.843 C 246.400 192.743,246.308 191.650,245.779 191.447 C 245.423 191.311,245.263 191.378,245.403 191.605 C 245.537 191.822,245.457 192.000,245.224 192.000 C 244.991 192.000,244.800 191.820,244.800 191.600 C 244.800 191.380,244.260 191.200,243.600 191.200 L 242.400 191.200 242.400 198.900 M253.776 191.757 C 253.690 192.001,253.571 193.280,253.510 194.600 L 253.400 197.000 250.500 196.932 L 247.600 196.864 247.600 198.862 L 247.600 200.861 250.700 200.730 L 253.800 200.600 253.600 203.600 L 253.400 206.600 255.508 206.607 L 257.617 206.613 257.508 199.007 L 257.400 191.400 255.666 191.357 C 254.712 191.333,253.861 191.513,253.776 191.757 M267.217 191.983 C 266.438 192.762,264.597 196.059,264.775 196.355 C 264.826 196.441,264.718 196.621,264.534 196.755 C 264.159 197.030,263.880 197.508,261.133 202.562 C 258.910 206.653,258.884 206.427,261.595 206.548 L 263.668 206.640 264.727 204.620 C 265.310 203.509,265.793 202.404,265.800 202.165 C 265.807 201.926,266.127 201.415,266.512 201.031 C 266.896 200.646,267.578 199.525,268.027 198.540 L 268.844 196.748 269.522 197.677 C 271.678 200.630,271.647 201.127,269.300 201.278 C 267.557 201.390,267.389 201.491,267.273 202.507 C 267.203 203.116,266.978 203.510,266.773 203.383 C 266.568 203.256,266.400 203.433,266.400 203.776 C 266.400 204.294,266.998 204.400,269.912 204.400 C 273.385 204.400,273.429 204.413,273.844 205.511 C 274.210 206.481,278.800 207.462,278.800 206.569 C 278.800 206.163,277.081 203.200,276.845 203.200 C 276.694 203.200,276.546 202.873,276.516 202.473 C 276.485 202.074,275.817 200.648,275.030 199.306 C 274.244 197.964,273.600 196.690,273.600 196.475 C 273.600 196.261,273.330 195.982,273.000 195.855 C 272.670 195.729,272.400 195.364,272.400 195.045 C 272.400 192.372,268.897 190.303,267.217 191.983 M280.363 191.371 C 280.077 191.656,280.285 206.018,280.579 206.312 C 280.729 206.463,281.646 206.611,282.616 206.641 L 284.379 206.695 284.489 201.067 L 284.600 195.439 285.700 195.480 C 286.305 195.502,287.874 195.538,289.186 195.560 C 293.998 195.641,293.329 198.868,288.432 199.200 L 285.484 199.400 285.442 201.200 L 285.400 203.000 287.523 203.122 C 291.495 203.349,295.379 201.579,295.919 199.294 C 296.647 196.212,295.720 193.436,293.600 192.351 C 292.004 191.534,288.200 190.852,289.200 191.562 C 289.658 191.887,289.375 191.978,288.000 191.947 C 286.351 191.909,286.300 191.879,287.400 191.595 C 288.257 191.373,287.701 191.286,285.458 191.292 C 283.550 191.297,282.529 191.436,282.858 191.644 C 283.221 191.874,283.243 191.990,282.924 191.994 C 282.662 191.997,282.336 191.820,282.200 191.600 C 281.954 191.202,280.689 191.044,280.363 191.371 M207.876 195.900 C 207.775 196.285,207.693 195.970,207.693 195.200 C 207.693 194.430,207.775 194.115,207.876 194.500 C 207.976 194.885,207.976 195.515,207.876 195.900 M207.876 205.500 C 207.775 205.885,207.693 205.570,207.693 204.800 C 207.693 204.030,207.775 203.715,207.876 204.100 C 207.976 204.485,207.976 205.115,207.876 205.500 " stroke="none" fill="#ec2224" fill-rule="evenodd"></path><path id="path1" d="M99.706 110.217 C 84.198 114.393,82.167 134.905,96.593 141.656 C 106.468 146.277,118.058 140.154,120.087 129.244 C 122.205 117.855,110.818 107.224,99.706 110.217 " stroke="none" fill="#241c1f" fill-rule="evenodd"></path><path id="path2" d="M113.300 145.076 C 113.685 145.176,114.315 145.176,114.700 145.076 C 115.085 144.975,114.770 144.893,114.000 144.893 C 113.230 144.893,112.915 144.975,113.300 145.076 M177.700 154.563 C 176.758 155.557,176.495 156.800,177.227 156.800 C 177.472 156.800,177.546 156.459,177.400 156.000 C 177.258 155.553,177.328 155.200,177.559 155.200 C 177.786 155.200,178.165 154.840,178.400 154.400 C 178.954 153.364,178.803 153.399,177.700 154.563 M187.911 153.893 C 188.851 153.978,190.291 153.977,191.111 153.891 C 191.930 153.805,191.160 153.736,189.400 153.737 C 187.640 153.739,186.970 153.809,187.911 153.893 M211.734 163.600 C 211.734 165.250,211.805 165.925,211.891 165.100 C 211.978 164.275,211.978 162.925,211.891 162.100 C 211.805 161.275,211.734 161.950,211.734 163.600 M248.693 161.848 C 248.583 162.424,248.524 163.677,248.562 164.632 L 248.631 166.368 245.815 166.505 L 243.000 166.641 246.100 166.721 L 249.200 166.800 249.200 163.800 C 249.200 160.684,249.036 160.053,248.693 161.848 M250.472 165.900 C 250.432 168.815,250.535 171.200,250.700 171.201 C 250.865 171.201,250.952 169.626,250.893 167.701 C 250.694 161.210,250.545 160.570,250.472 165.900 M266.000 166.000 C 266.000 168.933,266.111 171.223,266.246 171.087 C 266.521 170.812,266.457 161.124,266.178 160.845 C 266.080 160.747,266.000 163.067,266.000 166.000 M276.054 163.500 C 276.025 165.095,276.135 166.400,276.300 166.400 C 276.465 166.400,276.548 165.455,276.484 164.300 C 276.291 160.779,276.112 160.446,276.054 163.500 M176.972 170.200 C 176.972 175.260,177.029 177.275,177.099 174.677 C 177.169 172.080,177.168 167.940,177.098 165.477 C 177.028 163.015,176.971 165.140,176.972 170.200 M194.078 164.300 C 194.002 167.116,194.836 168.360,195.777 166.837 C 195.900 166.638,195.650 166.567,195.220 166.679 C 194.510 166.865,194.426 166.632,194.298 164.142 L 194.157 161.400 194.078 164.300 M165.042 167.835 C 164.713 168.692,164.733 168.800,165.224 168.800 C 165.457 168.800,165.545 168.635,165.421 168.434 C 165.297 168.233,165.412 167.996,165.678 167.907 C 166.017 167.794,166.030 167.666,165.722 167.476 C 165.481 167.327,165.175 167.488,165.042 167.835 M217.500 168.295 C 218.655 168.376,220.545 168.376,221.700 168.295 C 222.855 168.214,221.910 168.148,219.600 168.148 C 217.290 168.148,216.345 168.214,217.500 168.295 M272.501 169.400 C 272.505 170.280,272.587 170.593,272.683 170.095 C 272.779 169.598,272.775 168.878,272.675 168.495 C 272.575 168.113,272.496 168.520,272.501 169.400 M281.900 168.295 C 283.055 168.376,284.945 168.376,286.100 168.295 C 287.255 168.214,286.310 168.148,284.000 168.148 C 281.690 168.148,280.745 168.214,281.900 168.295 M289.340 171.200 C 289.340 173.070,289.409 173.835,289.493 172.900 C 289.577 171.965,289.577 170.435,289.493 169.500 C 289.409 168.565,289.340 169.330,289.340 171.200 M224.937 171.400 C 224.939 173.160,225.009 173.830,225.093 172.889 C 225.178 171.949,225.177 170.509,225.091 169.689 C 225.005 168.870,224.936 169.640,224.937 171.400 M217.065 172.172 C 216.953 172.461,217.996 172.558,220.286 172.470 C 222.149 172.398,223.553 172.219,223.406 172.073 C 222.952 171.618,217.244 171.708,217.065 172.172 M282.400 172.025 C 282.400 172.231,283.690 172.400,285.267 172.400 C 286.843 172.400,288.016 172.283,287.874 172.140 C 287.454 171.721,282.400 171.614,282.400 172.025 M196.400 173.356 C 196.400 173.677,199.256 173.832,199.448 173.523 C 199.558 173.345,198.917 173.200,198.024 173.200 C 197.131 173.200,196.400 173.270,196.400 173.356 M261.505 173.483 C 262.002 173.579,262.722 173.575,263.105 173.475 C 263.487 173.375,263.080 173.296,262.200 173.301 C 261.320 173.305,261.007 173.387,261.505 173.483 M211.033 175.600 C 211.330 176.714,211.519 177.014,211.767 176.766 C 211.859 176.674,211.672 176.149,211.351 175.599 L 210.767 174.600 211.033 175.600 M139.778 179.235 C 139.631 179.474,139.710 179.870,139.955 180.115 C 140.282 180.442,140.400 180.326,140.400 179.680 C 140.400 178.714,140.192 178.565,139.778 179.235 M140.093 184.000 C 140.093 184.770,140.175 185.085,140.276 184.700 C 140.376 184.315,140.376 183.685,140.276 183.300 C 140.175 182.915,140.093 183.230,140.093 184.000 M133.124 189.400 C 133.326 189.840,133.592 190.470,133.714 190.800 C 133.907 191.318,133.941 191.315,133.968 190.776 C 133.986 190.434,133.720 189.804,133.378 189.376 C 132.766 188.612,132.762 188.613,133.124 189.400 M169.291 199.100 L 169.382 207.000 169.500 199.282 C 169.574 194.382,169.760 191.652,170.009 191.805 C 170.224 191.938,170.400 191.857,170.400 191.624 C 170.400 191.391,170.130 191.200,169.800 191.200 C 169.284 191.200,169.213 192.304,169.291 199.100 M173.505 196.099 C 173.701 205.315,173.843 206.201,173.922 198.700 C 173.965 194.575,173.865 191.200,173.700 191.199 C 173.535 191.199,173.447 193.404,173.505 196.099 M184.968 199.000 C 184.968 203.400,185.026 205.255,185.098 203.121 C 185.170 200.988,185.170 197.388,185.099 195.121 C 185.027 192.855,184.968 194.600,184.968 199.000 M235.200 191.687 C 235.200 191.859,235.770 192.000,236.467 192.000 C 237.163 192.000,237.612 191.879,237.464 191.730 C 237.081 191.347,235.200 191.311,235.200 191.687 M242.168 199.000 C 242.168 203.400,242.226 205.255,242.298 203.121 C 242.370 200.988,242.370 197.388,242.299 195.121 C 242.227 192.855,242.168 194.600,242.168 199.000 M244.800 191.714 C 244.800 191.901,245.156 191.941,245.591 191.803 C 246.356 191.560,246.386 191.788,246.500 198.876 L 246.619 206.200 246.710 198.704 L 246.800 191.209 245.800 191.292 C 245.250 191.337,244.800 191.527,244.800 191.714 M253.200 193.967 C 253.200 195.488,253.016 196.825,252.790 196.937 C 252.565 197.049,252.610 197.094,252.890 197.039 C 253.442 196.929,254.041 191.198,253.500 191.199 C 253.335 191.200,253.200 192.445,253.200 193.967 M257.504 196.499 C 257.693 206.167,257.842 207.096,257.922 199.100 C 257.965 194.755,257.865 191.200,257.700 191.199 C 257.535 191.199,257.447 193.584,257.504 196.499 M287.400 191.627 C 286.299 191.882,286.340 191.909,287.900 191.953 C 289.596 192.000,290.047 191.836,289.100 191.518 C 288.825 191.425,288.060 191.475,287.400 191.627 M207.693 195.200 C 207.693 195.970,207.775 196.285,207.876 195.900 C 207.976 195.515,207.976 194.885,207.876 194.500 C 207.775 194.115,207.693 194.430,207.693 195.200 M280.093 196.000 C 280.093 196.770,280.175 197.085,280.276 196.700 C 280.376 196.315,280.376 195.685,280.276 195.300 C 280.175 194.915,280.093 195.230,280.093 196.000 M284.558 201.400 C 284.558 204.480,284.621 205.687,284.697 204.082 C 284.773 202.478,284.773 199.958,284.696 198.482 C 284.619 197.007,284.557 198.320,284.558 201.400 M115.600 199.400 C 116.346 200.170,117.047 200.800,117.157 200.800 C 117.267 200.800,116.746 200.170,116.000 199.400 C 115.254 198.630,114.553 198.000,114.443 198.000 C 114.333 198.000,114.854 198.630,115.600 199.400 M135.264 199.300 C 135.201 200.765,135.667 201.262,136.238 200.338 C 136.409 200.062,136.349 199.985,136.088 200.146 C 135.816 200.313,135.591 199.921,135.490 199.108 C 135.329 197.811,135.328 197.812,135.264 199.300 M212.514 201.400 C 212.517 202.500,212.595 202.903,212.687 202.295 C 212.779 201.686,212.777 200.786,212.682 200.295 C 212.587 199.803,212.511 200.300,212.514 201.400 M270.638 200.155 C 270.814 200.614,270.469 200.786,269.133 200.905 L 267.400 201.060 269.300 201.130 C 271.138 201.198,271.930 200.498,270.805 199.803 C 270.581 199.665,270.509 199.818,270.638 200.155 M175.160 200.922 C 175.338 201.099,176.545 201.186,177.842 201.117 L 180.200 200.990 177.518 200.795 C 176.043 200.688,174.982 200.745,175.160 200.922 M253.367 200.942 C 253.252 201.240,253.215 202.635,253.285 204.042 L 253.411 206.600 253.605 203.499 C 253.800 200.396,253.756 199.927,253.367 200.942 M194.634 201.457 C 194.424 202.002,194.483 202.029,194.983 201.614 C 195.323 201.332,196.270 201.180,197.159 201.265 C 198.024 201.347,198.647 201.276,198.543 201.107 C 198.155 200.480,194.897 200.771,194.634 201.457 M248.691 201.089 C 249.401 201.177,250.661 201.179,251.491 201.092 C 252.321 201.005,251.740 200.933,250.200 200.931 C 248.660 200.929,247.981 201.000,248.691 201.089 M280.101 202.200 C 280.105 203.080,280.187 203.393,280.283 202.895 C 280.379 202.398,280.375 201.678,280.275 201.295 C 280.175 200.913,280.096 201.320,280.101 202.200 M207.693 204.800 C 207.693 205.570,207.775 205.885,207.876 205.500 C 207.976 205.115,207.976 204.485,207.876 204.100 C 207.775 203.715,207.693 204.030,207.693 204.800 M280.000 205.600 C 280.000 206.260,280.149 206.800,280.331 206.800 C 280.513 206.800,280.582 206.260,280.485 205.600 C 280.388 204.940,280.240 204.400,280.155 204.400 C 280.070 204.400,280.000 204.940,280.000 205.600 M203.700 206.676 C 204.085 206.776,204.715 206.776,205.100 206.676 C 205.485 206.575,205.170 206.493,204.400 206.493 C 203.630 206.493,203.315 206.575,203.700 206.676 " stroke="none" fill="#f02024" fill-rule="evenodd"></path><path id="path3" d="M113.300 145.076 C 113.685 145.176,114.315 145.176,114.700 145.076 C 115.085 144.975,114.770 144.893,114.000 144.893 C 113.230 144.893,112.915 144.975,113.300 145.076 M177.700 154.563 C 176.758 155.557,176.495 156.800,177.227 156.800 C 177.472 156.800,177.546 156.459,177.400 156.000 C 177.258 155.553,177.328 155.200,177.559 155.200 C 177.786 155.200,178.165 154.840,178.400 154.400 C 178.954 153.364,178.803 153.399,177.700 154.563 M187.911 153.893 C 188.851 153.978,190.291 153.977,191.111 153.891 C 191.930 153.805,191.160 153.736,189.400 153.737 C 187.640 153.739,186.970 153.809,187.911 153.893 M211.734 163.600 C 211.734 165.250,211.805 165.925,211.891 165.100 C 211.978 164.275,211.978 162.925,211.891 162.100 C 211.805 161.275,211.734 161.950,211.734 163.600 M248.693 161.848 C 248.583 162.424,248.524 163.677,248.562 164.632 L 248.631 166.368 245.815 166.505 L 243.000 166.641 246.100 166.721 L 249.200 166.800 249.200 163.800 C 249.200 160.684,249.036 160.053,248.693 161.848 M250.472 165.900 C 250.432 168.815,250.535 171.200,250.700 171.201 C 250.865 171.201,250.952 169.626,250.893 167.701 C 250.694 161.210,250.545 160.570,250.472 165.900 M266.000 166.000 C 266.000 168.933,266.111 171.223,266.246 171.087 C 266.521 170.812,266.457 161.124,266.178 160.845 C 266.080 160.747,266.000 163.067,266.000 166.000 M276.054 163.500 C 276.025 165.095,276.135 166.400,276.300 166.400 C 276.465 166.400,276.548 165.455,276.484 164.300 C 276.291 160.779,276.112 160.446,276.054 163.500 M176.972 170.200 C 176.972 175.260,177.029 177.275,177.099 174.677 C 177.169 172.080,177.168 167.940,177.098 165.477 C 177.028 163.015,176.971 165.140,176.972 170.200 M194.078 164.300 C 194.002 167.116,194.836 168.360,195.777 166.837 C 195.900 166.638,195.650 166.567,195.220 166.679 C 194.510 166.865,194.426 166.632,194.298 164.142 L 194.157 161.400 194.078 164.300 M165.042 167.835 C 164.713 168.692,164.733 168.800,165.224 168.800 C 165.457 168.800,165.545 168.635,165.421 168.434 C 165.297 168.233,165.412 167.996,165.678 167.907 C 166.017 167.794,166.030 167.666,165.722 167.476 C 165.481 167.327,165.175 167.488,165.042 167.835 M217.500 168.295 C 218.655 168.376,220.545 168.376,221.700 168.295 C 222.855 168.214,221.910 168.148,219.600 168.148 C 217.290 168.148,216.345 168.214,217.500 168.295 M272.501 169.400 C 272.505 170.280,272.587 170.593,272.683 170.095 C 272.779 169.598,272.775 168.878,272.675 168.495 C 272.575 168.113,272.496 168.520,272.501 169.400 M281.900 168.295 C 283.055 168.376,284.945 168.376,286.100 168.295 C 287.255 168.214,286.310 168.148,284.000 168.148 C 281.690 168.148,280.745 168.214,281.900 168.295 M289.340 171.200 C 289.340 173.070,289.409 173.835,289.493 172.900 C 289.577 171.965,289.577 170.435,289.493 169.500 C 289.409 168.565,289.340 169.330,289.340 171.200 M224.937 171.400 C 224.939 173.160,225.009 173.830,225.093 172.889 C 225.178 171.949,225.177 170.509,225.091 169.689 C 225.005 168.870,224.936 169.640,224.937 171.400 M217.065 172.172 C 216.953 172.461,217.996 172.558,220.286 172.470 C 222.149 172.398,223.553 172.219,223.406 172.073 C 222.952 171.618,217.244 171.708,217.065 172.172 M282.400 172.025 C 282.400 172.231,283.690 172.400,285.267 172.400 C 286.843 172.400,288.016 172.283,287.874 172.140 C 287.454 171.721,282.400 171.614,282.400 172.025 M196.400 173.356 C 196.400 173.677,199.256 173.832,199.448 173.523 C 199.558 173.345,198.917 173.200,198.024 173.200 C 197.131 173.200,196.400 173.270,196.400 173.356 M261.505 173.483 C 262.002 173.579,262.722 173.575,263.105 173.475 C 263.487 173.375,263.080 173.296,262.200 173.301 C 261.320 173.305,261.007 173.387,261.505 173.483 M211.033 175.600 C 211.330 176.714,211.519 177.014,211.767 176.766 C 211.859 176.674,211.672 176.149,211.351 175.599 L 210.767 174.600 211.033 175.600 M139.778 179.235 C 139.631 179.474,139.710 179.870,139.955 180.115 C 140.282 180.442,140.400 180.326,140.400 179.680 C 140.400 178.714,140.192 178.565,139.778 179.235 M140.093 184.000 C 140.093 184.770,140.175 185.085,140.276 184.700 C 140.376 184.315,140.376 183.685,140.276 183.300 C 140.175 182.915,140.093 183.230,140.093 184.000 M133.124 189.400 C 133.326 189.840,133.592 190.470,133.714 190.800 C 133.907 191.318,133.941 191.315,133.968 190.776 C 133.986 190.434,133.720 189.804,133.378 189.376 C 132.766 188.612,132.762 188.613,133.124 189.400 M169.291 199.100 L 169.382 207.000 169.500 199.282 C 169.574 194.382,169.760 191.652,170.009 191.805 C 170.224 191.938,170.400 191.857,170.400 191.624 C 170.400 191.391,170.130 191.200,169.800 191.200 C 169.284 191.200,169.213 192.304,169.291 199.100 M173.505 196.099 C 173.701 205.315,173.843 206.201,173.922 198.700 C 173.965 194.575,173.865 191.200,173.700 191.199 C 173.535 191.199,173.447 193.404,173.505 196.099 M184.968 199.000 C 184.968 203.400,185.026 205.255,185.098 203.121 C 185.170 200.988,185.170 197.388,185.099 195.121 C 185.027 192.855,184.968 194.600,184.968 199.000 M235.200 191.687 C 235.200 191.859,235.770 192.000,236.467 192.000 C 237.163 192.000,237.612 191.879,237.464 191.730 C 237.081 191.347,235.200 191.311,235.200 191.687 M242.168 199.000 C 242.168 203.400,242.226 205.255,242.298 203.121 C 242.370 200.988,242.370 197.388,242.299 195.121 C 242.227 192.855,242.168 194.600,242.168 199.000 M244.800 191.714 C 244.800 191.901,245.156 191.941,245.591 191.803 C 246.356 191.560,246.386 191.788,246.500 198.876 L 246.619 206.200 246.710 198.704 L 246.800 191.209 245.800 191.292 C 245.250 191.337,244.800 191.527,244.800 191.714 M253.200 193.967 C 253.200 195.488,253.016 196.825,252.790 196.937 C 252.565 197.049,252.610 197.094,252.890 197.039 C 253.442 196.929,254.041 191.198,253.500 191.199 C 253.335 191.200,253.200 192.445,253.200 193.967 M257.504 196.499 C 257.693 206.167,257.842 207.096,257.922 199.100 C 257.965 194.755,257.865 191.200,257.700 191.199 C 257.535 191.199,257.447 193.584,257.504 196.499 M287.400 191.627 C 286.299 191.882,286.340 191.909,287.900 191.953 C 289.596 192.000,290.047 191.836,289.100 191.518 C 288.825 191.425,288.060 191.475,287.400 191.627 M207.693 195.200 C 207.693 195.970,207.775 196.285,207.876 195.900 C 207.976 195.515,207.976 194.885,207.876 194.500 C 207.775 194.115,207.693 194.430,207.693 195.200 M280.093 196.000 C 280.093 196.770,280.175 197.085,280.276 196.700 C 280.376 196.315,280.376 195.685,280.276 195.300 C 280.175 194.915,280.093 195.230,280.093 196.000 M284.558 201.400 C 284.558 204.480,284.621 205.687,284.697 204.082 C 284.773 202.478,284.773 199.958,284.696 198.482 C 284.619 197.007,284.557 198.320,284.558 201.400 M115.600 199.400 C 116.346 200.170,117.047 200.800,117.157 200.800 C 117.267 200.800,116.746 200.170,116.000 199.400 C 115.254 198.630,114.553 198.000,114.443 198.000 C 114.333 198.000,114.854 198.630,115.600 199.400 M135.264 199.300 C 135.201 200.765,135.667 201.262,136.238 200.338 C 136.409 200.062,136.349 199.985,136.088 200.146 C 135.816 200.313,135.591 199.921,135.490 199.108 C 135.329 197.811,135.328 197.812,135.264 199.300 M212.514 201.400 C 212.517 202.500,212.595 202.903,212.687 202.295 C 212.779 201.686,212.777 200.786,212.682 200.295 C 212.587 199.803,212.511 200.300,212.514 201.400 M270.638 200.155 C 270.814 200.614,270.469 200.786,269.133 200.905 L 267.400 201.060 269.300 201.130 C 271.138 201.198,271.930 200.498,270.805 199.803 C 270.581 199.665,270.509 199.818,270.638 200.155 M175.160 200.922 C 175.338 201.099,176.545 201.186,177.842 201.117 L 180.200 200.990 177.518 200.795 C 176.043 200.688,174.982 200.745,175.160 200.922 M253.367 200.942 C 253.252 201.240,253.215 202.635,253.285 204.042 L 253.411 206.600 253.605 203.499 C 253.800 200.396,253.756 199.927,253.367 200.942 M194.634 201.457 C 194.424 202.002,194.483 202.029,194.983 201.614 C 195.323 201.332,196.270 201.180,197.159 201.265 C 198.024 201.347,198.647 201.276,198.543 201.107 C 198.155 200.480,194.897 200.771,194.634 201.457 M248.691 201.089 C 249.401 201.177,250.661 201.179,251.491 201.092 C 252.321 201.005,251.740 200.933,250.200 200.931 C 248.660 200.929,247.981 201.000,248.691 201.089 M280.101 202.200 C 280.105 203.080,280.187 203.393,280.283 202.895 C 280.379 202.398,280.375 201.678,280.275 201.295 C 280.175 200.913,280.096 201.320,280.101 202.200 M207.693 204.800 C 207.693 205.570,207.775 205.885,207.876 205.500 C 207.976 205.115,207.976 204.485,207.876 204.100 C 207.775 203.715,207.693 204.030,207.693 204.800 M280.000 205.600 C 280.000 206.260,280.149 206.800,280.331 206.800 C 280.513 206.800,280.582 206.260,280.485 205.600 C 280.388 204.940,280.240 204.400,280.155 204.400 C 280.070 204.400,280.000 204.940,280.000 205.600 M203.700 206.676 C 204.085 206.776,204.715 206.776,205.100 206.676 C 205.485 206.575,205.170 206.493,204.400 206.493 C 203.630 206.493,203.315 206.575,203.700 206.676 " stroke="none" fill="#f02024" fill-rule="evenodd"></path><path id="path4" d="M113.300 145.076 C 113.685 145.176,114.315 145.176,114.700 145.076 C 115.085 144.975,114.770 144.893,114.000 144.893 C 113.230 144.893,112.915 144.975,113.300 145.076 M177.700 154.563 C 176.758 155.557,176.495 156.800,177.227 156.800 C 177.472 156.800,177.546 156.459,177.400 156.000 C 177.258 155.553,177.328 155.200,177.559 155.200 C 177.786 155.200,178.165 154.840,178.400 154.400 C 178.954 153.364,178.803 153.399,177.700 154.563 M187.911 153.893 C 188.851 153.978,190.291 153.977,191.111 153.891 C 191.930 153.805,191.160 153.736,189.400 153.737 C 187.640 153.739,186.970 153.809,187.911 153.893 M211.734 163.600 C 211.734 165.250,211.805 165.925,211.891 165.100 C 211.978 164.275,211.978 162.925,211.891 162.100 C 211.805 161.275,211.734 161.950,211.734 163.600 M248.693 161.848 C 248.583 162.424,248.524 163.677,248.562 164.632 L 248.631 166.368 245.815 166.505 L 243.000 166.641 246.100 166.721 L 249.200 166.800 249.200 163.800 C 249.200 160.684,249.036 160.053,248.693 161.848 M250.472 165.900 C 250.432 168.815,250.535 171.200,250.700 171.201 C 250.865 171.201,250.952 169.626,250.893 167.701 C 250.694 161.210,250.545 160.570,250.472 165.900 M266.000 166.000 C 266.000 168.933,266.111 171.223,266.246 171.087 C 266.521 170.812,266.457 161.124,266.178 160.845 C 266.080 160.747,266.000 163.067,266.000 166.000 M276.054 163.500 C 276.025 165.095,276.135 166.400,276.300 166.400 C 276.465 166.400,276.548 165.455,276.484 164.300 C 276.291 160.779,276.112 160.446,276.054 163.500 M176.972 170.200 C 176.972 175.260,177.029 177.275,177.099 174.677 C 177.169 172.080,177.168 167.940,177.098 165.477 C 177.028 163.015,176.971 165.140,176.972 170.200 M194.078 164.300 C 194.002 167.116,194.836 168.360,195.777 166.837 C 195.900 166.638,195.650 166.567,195.220 166.679 C 194.510 166.865,194.426 166.632,194.298 164.142 L 194.157 161.400 194.078 164.300 M165.042 167.835 C 164.713 168.692,164.733 168.800,165.224 168.800 C 165.457 168.800,165.545 168.635,165.421 168.434 C 165.297 168.233,165.412 167.996,165.678 167.907 C 166.017 167.794,166.030 167.666,165.722 167.476 C 165.481 167.327,165.175 167.488,165.042 167.835 M217.500 168.295 C 218.655 168.376,220.545 168.376,221.700 168.295 C 222.855 168.214,221.910 168.148,219.600 168.148 C 217.290 168.148,216.345 168.214,217.500 168.295 M272.501 169.400 C 272.505 170.280,272.587 170.593,272.683 170.095 C 272.779 169.598,272.775 168.878,272.675 168.495 C 272.575 168.113,272.496 168.520,272.501 169.400 M281.900 168.295 C 283.055 168.376,284.945 168.376,286.100 168.295 C 287.255 168.214,286.310 168.148,284.000 168.148 C 281.690 168.148,280.745 168.214,281.900 168.295 M289.340 171.200 C 289.340 173.070,289.409 173.835,289.493 172.900 C 289.577 171.965,289.577 170.435,289.493 169.500 C 289.409 168.565,289.340 169.330,289.340 171.200 M224.937 171.400 C 224.939 173.160,225.009 173.830,225.093 172.889 C 225.178 171.949,225.177 170.509,225.091 169.689 C 225.005 168.870,224.936 169.640,224.937 171.400 M217.065 172.172 C 216.953 172.461,217.996 172.558,220.286 172.470 C 222.149 172.398,223.553 172.219,223.406 172.073 C 222.952 171.618,217.244 171.708,217.065 172.172 M282.400 172.025 C 282.400 172.231,283.690 172.400,285.267 172.400 C 286.843 172.400,288.016 172.283,287.874 172.140 C 287.454 171.721,282.400 171.614,282.400 172.025 M196.400 173.356 C 196.400 173.677,199.256 173.832,199.448 173.523 C 199.558 173.345,198.917 173.200,198.024 173.200 C 197.131 173.200,196.400 173.270,196.400 173.356 M261.505 173.483 C 262.002 173.579,262.722 173.575,263.105 173.475 C 263.487 173.375,263.080 173.296,262.200 173.301 C 261.320 173.305,261.007 173.387,261.505 173.483 M211.033 175.600 C 211.330 176.714,211.519 177.014,211.767 176.766 C 211.859 176.674,211.672 176.149,211.351 175.599 L 210.767 174.600 211.033 175.600 M139.778 179.235 C 139.631 179.474,139.710 179.870,139.955 180.115 C 140.282 180.442,140.400 180.326,140.400 179.680 C 140.400 178.714,140.192 178.565,139.778 179.235 M140.093 184.000 C 140.093 184.770,140.175 185.085,140.276 184.700 C 140.376 184.315,140.376 183.685,140.276 183.300 C 140.175 182.915,140.093 183.230,140.093 184.000 M133.124 189.400 C 133.326 189.840,133.592 190.470,133.714 190.800 C 133.907 191.318,133.941 191.315,133.968 190.776 C 133.986 190.434,133.720 189.804,133.378 189.376 C 132.766 188.612,132.762 188.613,133.124 189.400 M169.291 199.100 L 169.382 207.000 169.500 199.282 C 169.574 194.382,169.760 191.652,170.009 191.805 C 170.224 191.938,170.400 191.857,170.400 191.624 C 170.400 191.391,170.130 191.200,169.800 191.200 C 169.284 191.200,169.213 192.304,169.291 199.100 M173.505 196.099 C 173.701 205.315,173.843 206.201,173.922 198.700 C 173.965 194.575,173.865 191.200,173.700 191.199 C 173.535 191.199,173.447 193.404,173.505 196.099 M184.968 199.000 C 184.968 203.400,185.026 205.255,185.098 203.121 C 185.170 200.988,185.170 197.388,185.099 195.121 C 185.027 192.855,184.968 194.600,184.968 199.000 M235.200 191.687 C 235.200 191.859,235.770 192.000,236.467 192.000 C 237.163 192.000,237.612 191.879,237.464 191.730 C 237.081 191.347,235.200 191.311,235.200 191.687 M242.168 199.000 C 242.168 203.400,242.226 205.255,242.298 203.121 C 242.370 200.988,242.370 197.388,242.299 195.121 C 242.227 192.855,242.168 194.600,242.168 199.000 M244.800 191.714 C 244.800 191.901,245.156 191.941,245.591 191.803 C 246.356 191.560,246.386 191.788,246.500 198.876 L 246.619 206.200 246.710 198.704 L 246.800 191.209 245.800 191.292 C 245.250 191.337,244.800 191.527,244.800 191.714 M253.200 193.967 C 253.200 195.488,253.016 196.825,252.790 196.937 C 252.565 197.049,252.610 197.094,252.890 197.039 C 253.442 196.929,254.041 191.198,253.500 191.199 C 253.335 191.200,253.200 192.445,253.200 193.967 M257.504 196.499 C 257.693 206.167,257.842 207.096,257.922 199.100 C 257.965 194.755,257.865 191.200,257.700 191.199 C 257.535 191.199,257.447 193.584,257.504 196.499 M287.400 191.627 C 286.299 191.882,286.340 191.909,287.900 191.953 C 289.596 192.000,290.047 191.836,289.100 191.518 C 288.825 191.425,288.060 191.475,287.400 191.627 M207.693 195.200 C 207.693 195.970,207.775 196.285,207.876 195.900 C 207.976 195.515,207.976 194.885,207.876 194.500 C 207.775 194.115,207.693 194.430,207.693 195.200 M280.093 196.000 C 280.093 196.770,280.175 197.085,280.276 196.700 C 280.376 196.315,280.376 195.685,280.276 195.300 C 280.175 194.915,280.093 195.230,280.093 196.000 M284.558 201.400 C 284.558 204.480,284.621 205.687,284.697 204.082 C 284.773 202.478,284.773 199.958,284.696 198.482 C 284.619 197.007,284.557 198.320,284.558 201.400 M115.600 199.400 C 116.346 200.170,117.047 200.800,117.157 200.800 C 117.267 200.800,116.746 200.170,116.000 199.400 C 115.254 198.630,114.553 198.000,114.443 198.000 C 114.333 198.000,114.854 198.630,115.600 199.400 M135.264 199.300 C 135.201 200.765,135.667 201.262,136.238 200.338 C 136.409 200.062,136.349 199.985,136.088 200.146 C 135.816 200.313,135.591 199.921,135.490 199.108 C 135.329 197.811,135.328 197.812,135.264 199.300 M212.514 201.400 C 212.517 202.500,212.595 202.903,212.687 202.295 C 212.779 201.686,212.777 200.786,212.682 200.295 C 212.587 199.803,212.511 200.300,212.514 201.400 M270.638 200.155 C 270.814 200.614,270.469 200.786,269.133 200.905 L 267.400 201.060 269.300 201.130 C 271.138 201.198,271.930 200.498,270.805 199.803 C 270.581 199.665,270.509 199.818,270.638 200.155 M175.160 200.922 C 175.338 201.099,176.545 201.186,177.842 201.117 L 180.200 200.990 177.518 200.795 C 176.043 200.688,174.982 200.745,175.160 200.922 M253.367 200.942 C 253.252 201.240,253.215 202.635,253.285 204.042 L 253.411 206.600 253.605 203.499 C 253.800 200.396,253.756 199.927,253.367 200.942 M194.634 201.457 C 194.424 202.002,194.483 202.029,194.983 201.614 C 195.323 201.332,196.270 201.180,197.159 201.265 C 198.024 201.347,198.647 201.276,198.543 201.107 C 198.155 200.480,194.897 200.771,194.634 201.457 M248.691 201.089 C 249.401 201.177,250.661 201.179,251.491 201.092 C 252.321 201.005,251.740 200.933,250.200 200.931 C 248.660 200.929,247.981 201.000,248.691 201.089 M280.101 202.200 C 280.105 203.080,280.187 203.393,280.283 202.895 C 280.379 202.398,280.375 201.678,280.275 201.295 C 280.175 200.913,280.096 201.320,280.101 202.200 M207.693 204.800 C 207.693 205.570,207.775 205.885,207.876 205.500 C 207.976 205.115,207.976 204.485,207.876 204.100 C 207.775 203.715,207.693 204.030,207.693 204.800 M280.000 205.600 C 280.000 206.260,280.149 206.800,280.331 206.800 C 280.513 206.800,280.582 206.260,280.485 205.600 C 280.388 204.940,280.240 204.400,280.155 204.400 C 280.070 204.400,280.000 204.940,280.000 205.600 M203.700 206.676 C 204.085 206.776,204.715 206.776,205.100 206.676 C 205.485 206.575,205.170 206.493,204.400 206.493 C 203.630 206.493,203.315 206.575,203.700 206.676 " stroke="none" fill="#f02024" fill-rule="evenodd"></path></g></svg>